Formula One 2011 Season

Race 6: Monaco Grand Prix, Monte Carlo

Record Source: BBC One Red Button Stream
Original Format: MPEG TS Stream
Date: Saturday 28th May 2011
Time: 10:00 to 11:00

Monaco Grand Prix Practice Session 3

BBC F1 coverage of the 3rd Practice Session for the 6th Race meeting of the 
2011 Formula One Season, This time its one of the seasons most prestigious races,
the Monaco Grand Prix, Monte Carlo.

Complete name                    : F1 2011 Monaco Practice 3.mkv
Format                           : Matroska
File size                        : 1 015 MiB
Duration                         : 1h 9mn
Overall bit rate                 : 2 042 Kbps
Writing application              : HandBrake 0.9.5
Writing library                  : libmkv 0.6.4.1

Video
ID                               : 1
Format                           : AVC
Format/Info                      : Advanced Video Codec
Format profile                   : Main@L3.0
Format settings, CABAC           : Yes
Format settings, ReFrames        : 4 frames
Format settings, GOP             : M=1, N=5
Muxing mode                      : Container profile=Unknown@3.0
Codec ID                         : V_MPEG4/ISO/AVC
Duration                         : 1h 9mn
Bit rate                         : 1 923 Kbps
Width                            : 544 pixels
Height                           : 576 pixels
Display aspect ratio             : 16:9
Frame rate mode                  : Variable
Frame rate                       : 25.000 fps
Color space                      : YUV
Chroma subsampling               : 4:2:0
Bit depth                        : 8 bits
Scan type                        : Progressive
Bits/(Pixel*Frame)               : 0.245
Stream size                      : 931 MiB (92%)
Writing library                  : x264 core 112
Color primaries                  : BT.601-6 525, BT.1358 525, BT.1700 NTSC, SMPTE 170M
Transfer characteristics         : BT.709-5, BT.1361
Matrix coefficients              : BT.601-6 525, BT.358 525, BT.1700 NTSC, SMPTE 170M

Audio
ID                               : 2
Format                           : AC-3
Format/Info                      : Audio Coding 3
Mode extension                   : CM (complete main)
Codec ID                         : A_AC3
Duration                         : 1h 9mn
Bit rate mode                    : Constant
Bit rate                         : 128 Kbps
Channel(s)                       : 2 channels
Channel positions                : Front: L R
Sampling rate                    : 48.0 KHz
Bit depth                        : 16 bits
Stream size                      : 63.6 MiB (6%)
Language                         : English


Enjoy, TheBlackKnight


